<mxfile host="65bd71144e">
    <diagram id="codeviz-diagram" name="System Diagram">
        <mxGraphModel dx="1626" dy="779" grid="1" gridSize="10" guides="1" tooltips="1" connect="1" arrows="1" fold="1" page="1" pageScale="1" pageWidth="1169" pageHeight="827" math="0" shadow="0">
            <root>
                <mxCell id="0"/>
                <mxCell id="1" parent="0"/>
                <mxCell id="subGraph9" value="" style="html=1;whiteSpace=wrap;container=1;fillColor=#dae8fc;strokeColor=#6c8ebf;dashed=1;fillOpacity=20;strokeWidth=2;containerType=none;recursiveResize=0;movable=1;resizable=1;autosize=0;dropTarget=0" parent="1" vertex="1">
                    <mxGeometry x="50" y="202" width="1569" height="1627" as="geometry"/>
                </mxCell>
                <mxCell id="subGraph8" value="" style="html=1;whiteSpace=wrap;container=1;fillColor=#dae8fc;strokeColor=#6c8ebf;dashed=1;fillOpacity=20;strokeWidth=2;containerType=none;recursiveResize=0;movable=1;resizable=1;autosize=0;dropTarget=0" parent="subGraph9" vertex="1">
                    <mxGeometry x="1319" y="748" width="240" height="220" as="geometry"/>
                </mxCell>
                <mxCell id="DTOs" value="DTOs&lt;br&gt;Java Classes" style="rounded=1;whiteSpace=wrap;html=1;fillColor=#f5f5f5" parent="subGraph8" vertex="1">
                    <mxGeometry x="40" y="120" width="120" height="60" as="geometry"/>
                </mxCell>
                <mxCell id="subGraph8_label" value="Data Transfer Objects" style="edgeLabel;html=1;align=center;verticalAlign=middle;resizable=0;labelBackgroundColor=white;spacing=5" parent="subGraph9" vertex="1">
                    <mxGeometry x="1300" y="768" width="164" height="24" as="geometry"/>
                </mxCell>
                <mxCell id="subGraph7" value="" style="html=1;whiteSpace=wrap;container=1;fillColor=#dae8fc;strokeColor=#6c8ebf;dashed=1;fillOpacity=20;strokeWidth=2;containerType=none;recursiveResize=0;movable=1;resizable=1;autosize=0;dropTarget=0" parent="subGraph9" vertex="1">
                    <mxGeometry x="10" y="418" width="240" height="220" as="geometry"/>
                </mxCell>
                <mxCell id="MQTTSubscriber" value="MQTT Subscriber&lt;br&gt;Eclipse Paho" style="rounded=1;whiteSpace=wrap;html=1;fillColor=#f5f5f5" parent="subGraph7" vertex="1">
                    <mxGeometry x="40" y="120" width="120" height="60" as="geometry"/>
                </mxCell>
                <mxCell id="subGraph7_label" value="Integration Layer" style="edgeLabel;html=1;align=center;verticalAlign=middle;resizable=0;labelBackgroundColor=white;spacing=5" parent="subGraph9" vertex="1">
                    <mxGeometry x="-20" y="428" width="164" height="24" as="geometry"/>
                </mxCell>
                <mxCell id="subGraph6" value="" style="html=1;whiteSpace=wrap;container=1;fillColor=#dae8fc;strokeColor=#6c8ebf;dashed=1;fillOpacity=20;strokeWidth=2;containerType=none;recursiveResize=0;movable=1;resizable=1;autosize=0;dropTarget=0" parent="subGraph9" vertex="1">
                    <mxGeometry x="280" y="1125" width="1000" height="455" as="geometry"/>
                </mxCell>
                <mxCell id="Repositories" value="" style="html=1;whiteSpace=wrap;container=1;fillColor=#dae8fc;strokeColor=#6c8ebf;dashed=1;fillOpacity=20;strokeWidth=2;containerType=none;recursiveResize=0;movable=1;resizable=1;autosize=0;dropTarget=0" parent="subGraph6" vertex="1">
                    <mxGeometry x="50" y="95" width="940" height="245" as="geometry"/>
                </mxCell>
                <mxCell id="SensorRepo" value="Sensor Repository&lt;br&gt;Spring JPA" style="rounded=1;whiteSpace=wrap;html=1;fillColor=#f5f5f5" parent="Repositories" vertex="1">
                    <mxGeometry x="349" y="58" width="120" height="60" as="geometry"/>
                </mxCell>
                <mxCell id="CompanyRepo" value="Company Repository&lt;br&gt;Spring JPA" style="rounded=1;whiteSpace=wrap;html=1;fillColor=#f5f5f5" parent="Repositories" vertex="1">
                    <mxGeometry x="479" y="98" width="120" height="60" as="geometry"/>
                </mxCell>
                <mxCell id="LocationRepo" value="Location Repository&lt;br&gt;Spring JPA" style="rounded=1;whiteSpace=wrap;html=1;fillColor=#f5f5f5" parent="Repositories" vertex="1">
                    <mxGeometry x="609" y="138" width="120" height="60" as="geometry"/>
                </mxCell>
                <mxCell id="UserRepo" value="User Repository&lt;br&gt;Spring JPA" style="rounded=1;whiteSpace=wrap;html=1;fillColor=#f5f5f5" parent="Repositories" vertex="1">
                    <mxGeometry x="740" y="180" width="120" height="60" as="geometry"/>
                </mxCell>
                <mxCell id="RoleRepo" value="Role Repository&lt;br&gt;Spring JPA" style="rounded=1;whiteSpace=wrap;html=1;fillColor=#f5f5f5" parent="Repositories" vertex="1">
                    <mxGeometry x="180" y="18" width="120" height="60" as="geometry"/>
                </mxCell>
                <mxCell id="SensorDataRepo" value="Sensor Data Repository&lt;br&gt;Spring JPA" style="rounded=1;whiteSpace=wrap;html=1;fillColor=#f5f5f5" parent="Repositories" vertex="1">
                    <mxGeometry x="40" y="18" width="120" height="60" as="geometry"/>
                </mxCell>
                <mxCell id="Repositories_label" value="Repositories" style="edgeLabel;html=1;align=center;verticalAlign=middle;resizable=0;labelBackgroundColor=white;spacing=5" parent="subGraph6" vertex="1">
                    <mxGeometry x="58" y="103" width="864" height="24" as="geometry"/>
                </mxCell>
                <mxCell id="Database" value="PostgreSQL Database&lt;br&gt;PostgreSQL" style="rounded=1;whiteSpace=wrap;html=1;fillColor=#f5f5f5" parent="subGraph6" vertex="1">
                    <mxGeometry x="122.85714285714289" y="370" width="120" height="60" as="geometry"/>
                </mxCell>
                <mxCell id="subGraph6_label" value="Data Layer" style="edgeLabel;html=1;align=center;verticalAlign=middle;resizable=0;labelBackgroundColor=white;spacing=5" parent="subGraph9" vertex="1">
                    <mxGeometry x="330" y="1138" width="924" height="24" as="geometry"/>
                </mxCell>
                <mxCell id="subGraph4" value="" style="html=1;whiteSpace=wrap;container=1;fillColor=#dae8fc;strokeColor=#6c8ebf;dashed=1;fillOpacity=20;strokeWidth=2;containerType=none;recursiveResize=0;movable=1;resizable=1;autosize=0;dropTarget=0" parent="subGraph9" vertex="1">
                    <mxGeometry x="60" y="690" width="1240" height="420" as="geometry"/>
                </mxCell>
                <mxCell id="subGraph3" value="" style="html=1;whiteSpace=wrap;container=1;fillColor=#dae8fc;strokeColor=#6c8ebf;dashed=1;fillOpacity=20;strokeWidth=2;containerType=none;recursiveResize=0;movable=1;resizable=1;autosize=0;dropTarget=0" parent="subGraph4" vertex="1">
                    <mxGeometry x="38" y="78" width="240" height="320" as="geometry"/>
                </mxCell>
                <mxCell id="SecurityConfig" value="Security Config&lt;br&gt;Spring Security" style="rounded=1;whiteSpace=wrap;html=1;fillColor=#f5f5f5" parent="subGraph3" vertex="1">
                    <mxGeometry x="40" y="120" width="120" height="60" as="geometry"/>
                </mxCell>
                <mxCell id="ApiKeyGenerator" value="API Key Generator&lt;br&gt;Java Util" style="rounded=1;whiteSpace=wrap;html=1;fillColor=#f5f5f5" parent="subGraph3" vertex="1">
                    <mxGeometry x="40" y="241" width="120" height="60" as="geometry"/>
                </mxCell>
                <mxCell id="subGraph3_label" value="Security Services" style="edgeLabel;html=1;align=center;verticalAlign=middle;resizable=0;labelBackgroundColor=white;spacing=5" parent="subGraph4" vertex="1">
                    <mxGeometry x="9" y="88" width="164" height="24" as="geometry"/>
                </mxCell>
                <mxCell id="subGraph2" value="" style="html=1;whiteSpace=wrap;container=1;fillColor=#dae8fc;strokeColor=#6c8ebf;dashed=1;fillOpacity=20;strokeWidth=2;containerType=none;recursiveResize=0;movable=1;resizable=1;autosize=0;dropTarget=0" parent="subGraph4" vertex="1">
                    <mxGeometry x="309" y="138.85" width="900" height="220" as="geometry"/>
                </mxCell>
                <mxCell id="SensorService" value="Sensor Service&lt;br&gt;Spring Service" style="rounded=1;whiteSpace=wrap;html=1;fillColor=#f5f5f5" parent="subGraph2" vertex="1">
                    <mxGeometry x="320" y="120" width="120" height="60" as="geometry"/>
                </mxCell>
                <mxCell id="CompanyService" value="Company Service&lt;br&gt;Spring Service" style="rounded=1;whiteSpace=wrap;html=1;fillColor=#f5f5f5" parent="subGraph2" vertex="1">
                    <mxGeometry x="460" y="120" width="120" height="60" as="geometry"/>
                </mxCell>
                <mxCell id="LocationService" value="Location Service&lt;br&gt;Spring Service" style="rounded=1;whiteSpace=wrap;html=1;fillColor=#f5f5f5" parent="subGraph2" vertex="1">
                    <mxGeometry x="600" y="120" width="120" height="60" as="geometry"/>
                </mxCell>
                <mxCell id="UserService" value="User Service&lt;br&gt;Spring Service" style="rounded=1;whiteSpace=wrap;html=1;fillColor=#f5f5f5" parent="subGraph2" vertex="1">
                    <mxGeometry x="740" y="120" width="120" height="60" as="geometry"/>
                </mxCell>
                <mxCell id="SensorDataService" value="Sensor Data Service&lt;br&gt;Spring Service" style="rounded=1;whiteSpace=wrap;html=1;fillColor=#f5f5f5" parent="subGraph2" vertex="1">
                    <mxGeometry x="40" y="120" width="120" height="60" as="geometry"/>
                </mxCell>
                <mxCell id="RoleService" value="Role Service&lt;br&gt;Spring Service" style="rounded=1;whiteSpace=wrap;html=1;fillColor=#f5f5f5" parent="subGraph2" vertex="1">
                    <mxGeometry x="180" y="120" width="120" height="60" as="geometry"/>
                </mxCell>
                <mxCell id="subGraph2_label" value="Core Services" style="edgeLabel;html=1;align=center;verticalAlign=middle;resizable=0;labelBackgroundColor=white;spacing=5" parent="subGraph4" vertex="1">
                    <mxGeometry x="300" y="146.84615384615387" width="864" height="24" as="geometry"/>
                </mxCell>
                <mxCell id="subGraph4_label" value="Service Layer" style="edgeLabel;html=1;align=center;verticalAlign=middle;resizable=0;labelBackgroundColor=white;spacing=5" parent="subGraph9" vertex="1">
                    <mxGeometry x="100" y="698" width="1144" height="24" as="geometry"/>
                </mxCell>
                <mxCell id="subGraph1" value="" style="html=1;whiteSpace=wrap;container=1;fillColor=#dae8fc;strokeColor=#6c8ebf;dashed=1;fillOpacity=20;strokeWidth=2;containerType=none;recursiveResize=0;movable=1;resizable=1;autosize=0;dropTarget=0" parent="subGraph9" vertex="1">
                    <mxGeometry x="300" y="95" width="1030" height="495" as="geometry"/>
                </mxCell>
                <mxCell id="Controllers" value="" style="html=1;whiteSpace=wrap;container=1;fillColor=#dae8fc;strokeColor=#6c8ebf;dashed=1;fillOpacity=20;strokeWidth=2;containerType=none;recursiveResize=0;movable=1;resizable=1;autosize=0;dropTarget=0" parent="subGraph1" vertex="1">
                    <mxGeometry x="69" y="120" width="940" height="340" as="geometry"/>
                </mxCell>
                <mxCell id="SensorController" value="Sensor Controller&lt;br&gt;Spring REST" style="rounded=1;whiteSpace=wrap;html=1;fillColor=#f5f5f5" parent="Controllers" vertex="1">
                    <mxGeometry x="269" y="80" width="120" height="60" as="geometry"/>
                </mxCell>
                <mxCell id="CompanyController" value="Company Controller&lt;br&gt;Spring REST" style="rounded=1;whiteSpace=wrap;html=1;fillColor=#f5f5f5" parent="Controllers" vertex="1">
                    <mxGeometry x="399" y="120" width="120" height="60" as="geometry"/>
                </mxCell>
                <mxCell id="LocationController" value="Location Controller&lt;br&gt;Spring REST" style="rounded=1;whiteSpace=wrap;html=1;fillColor=#f5f5f5" parent="Controllers" vertex="1">
                    <mxGeometry x="521" y="158" width="120" height="60" as="geometry"/>
                </mxCell>
                <mxCell id="UserController" value="User Controller&lt;br&gt;Spring REST" style="rounded=1;whiteSpace=wrap;html=1;fillColor=#f5f5f5" parent="Controllers" vertex="1">
                    <mxGeometry x="651" y="218" width="120" height="60" as="geometry"/>
                </mxCell>
                <mxCell id="RoleController" value="Role Controller&lt;br&gt;Spring REST" style="rounded=1;whiteSpace=wrap;html=1;fillColor=#f5f5f5" parent="Controllers" vertex="1">
                    <mxGeometry x="31" y="73" width="120" height="60" as="geometry"/>
                </mxCell>
                <mxCell id="Controllers_label" value="Controllers" style="edgeLabel;html=1;align=center;verticalAlign=middle;resizable=0;labelBackgroundColor=white;spacing=5" parent="subGraph1" vertex="1">
                    <mxGeometry x="69" y="213" width="864" height="24" as="geometry"/>
                </mxCell>
                <mxCell id="APIGateway" value="API Gateway&lt;br&gt;Spring Boot" style="rounded=1;whiteSpace=wrap;html=1;fillColor=#f5f5f5" parent="subGraph1" vertex="1">
                    <mxGeometry x="256.7142857142857" y="43" width="120" height="60" as="geometry"/>
                </mxCell>
                <mxCell id="subGraph1_label" value="API Layer" style="edgeLabel;html=1;align=center;verticalAlign=middle;resizable=0;labelBackgroundColor=white;spacing=5" parent="subGraph9" vertex="1">
                    <mxGeometry x="308" y="103" width="924" height="24" as="geometry"/>
                </mxCell>
                <mxCell id="subGraph9_label" value="IoT Management System" style="edgeLabel;html=1;align=center;verticalAlign=middle;resizable=0;labelBackgroundColor=white;spacing=5" parent="1" vertex="1">
                    <mxGeometry x="49" y="210" width="1435" height="24" as="geometry"/>
                </mxCell>
                <mxCell id="User" value="External User" style="rounded=1;whiteSpace=wrap;html=1;fillColor=#f5f5f5" parent="1" vertex="1">
                    <mxGeometry x="537.7142857142858" y="12" width="120" height="60" as="geometry"/>
                </mxCell>
                <mxCell id="IoTDevice" value="IoT Device" style="rounded=1;whiteSpace=wrap;html=1;fillColor=#f5f5f5" parent="1" vertex="1">
                    <mxGeometry x="101" y="12" width="120" height="60" as="geometry"/>
                </mxCell>
                <mxCell id="edge-L_User_APIGateway_0" style="edgeStyle=orthogonalEdgeStyle;rounded=1;orthogonalLoop=1;jettySize=auto;html=1;strokeColor=#808080;strokeWidth=2;jumpStyle=arc;jumpSize=10;spacing=15;labelBackgroundColor=white;labelBorderColor=none" parent="1" source="User" target="APIGateway" edge="1">
                    <mxGeometry relative="1" as="geometry"/>
                </mxCell>
                <mxCell id="edge-L_User_APIGateway_0_label" value="HTTP/REST" style="edgeLabel;html=1;align=center;verticalAlign=middle;resizable=0;points=[];" parent="edge-L_User_APIGateway_0" vertex="1" connectable="0">
                    <mxGeometry x="-0.2" y="10" relative="1" as="geometry">
                        <mxPoint as="offset"/>
                    </mxGeometry>
                </mxCell>
                <mxCell id="edge-L_IoTDevice_MQTTSubscriber_1" style="edgeStyle=orthogonalEdgeStyle;rounded=1;orthogonalLoop=1;jettySize=auto;html=1;strokeColor=#808080;strokeWidth=2;jumpStyle=arc;jumpSize=10;spacing=15;labelBackgroundColor=white;labelBorderColor=none" parent="1" source="IoTDevice" target="MQTTSubscriber" edge="1">
                    <mxGeometry relative="1" as="geometry"/>
                </mxCell>
                <mxCell id="edge-L_IoTDevice_MQTTSubscriber_1_label" value="MQTT" style="edgeLabel;html=1;align=center;verticalAlign=middle;resizable=0;points=[];" parent="edge-L_IoTDevice_MQTTSubscriber_1" vertex="1" connectable="0">
                    <mxGeometry x="-0.2" y="10" relative="1" as="geometry">
                        <mxPoint as="offset"/>
                    </mxGeometry>
                </mxCell>
                <mxCell id="edge-L_APIGateway_SensorController_2" style="edgeStyle=orthogonalEdgeStyle;rounded=1;orthogonalLoop=1;jettySize=auto;html=1;strokeColor=#808080;strokeWidth=2;jumpStyle=arc;jumpSize=10;spacing=15;labelBackgroundColor=white;labelBorderColor=none" parent="1" source="APIGateway" target="SensorController" edge="1">
                    <mxGeometry relative="1" as="geometry"/>
                </mxCell>
                <mxCell id="edge-L_APIGateway_CompanyController_3" style="edgeStyle=orthogonalEdgeStyle;rounded=1;orthogonalLoop=1;jettySize=auto;html=1;strokeColor=#808080;strokeWidth=2;jumpStyle=arc;jumpSize=10;spacing=15;labelBackgroundColor=white;labelBorderColor=none" parent="1" source="APIGateway" target="CompanyController" edge="1">
                    <mxGeometry relative="1" as="geometry"/>
                </mxCell>
                <mxCell id="edge-L_APIGateway_LocationController_4" style="edgeStyle=orthogonalEdgeStyle;rounded=1;orthogonalLoop=1;jettySize=auto;html=1;strokeColor=#808080;strokeWidth=2;jumpStyle=arc;jumpSize=10;spacing=15;labelBackgroundColor=white;labelBorderColor=none" parent="1" source="APIGateway" target="LocationController" edge="1">
                    <mxGeometry relative="1" as="geometry"/>
                </mxCell>
                <mxCell id="edge-L_APIGateway_UserController_5" style="edgeStyle=orthogonalEdgeStyle;rounded=1;orthogonalLoop=1;jettySize=auto;html=1;strokeColor=#808080;strokeWidth=2;jumpStyle=arc;jumpSize=10;spacing=15;labelBackgroundColor=white;labelBorderColor=none" parent="1" source="APIGateway" target="UserController" edge="1">
                    <mxGeometry relative="1" as="geometry"/>
                </mxCell>
                <mxCell id="edge-L_APIGateway_SensorDataController_6" style="edgeStyle=orthogonalEdgeStyle;rounded=1;orthogonalLoop=1;jettySize=auto;html=1;strokeColor=#808080;strokeWidth=2;jumpStyle=arc;jumpSize=10;spacing=15;labelBackgroundColor=white;labelBorderColor=none" parent="1" source="APIGateway" target="SensorDataController" edge="1">
                    <mxGeometry relative="1" as="geometry"/>
                </mxCell>
                <mxCell id="edge-L_APIGateway_SecurityConfig_7" style="edgeStyle=orthogonalEdgeStyle;rounded=1;orthogonalLoop=1;jettySize=auto;html=1;strokeColor=#808080;strokeWidth=2;jumpStyle=arc;jumpSize=10;spacing=15;labelBackgroundColor=white;labelBorderColor=none" parent="1" source="APIGateway" target="SecurityConfig" edge="1">
                    <mxGeometry relative="1" as="geometry">
                        <Array as="points">
                            <mxPoint x="320" y="370"/>
                            <mxPoint x="320" y="1120"/>
                        </Array>
                    </mxGeometry>
                </mxCell>
                <mxCell id="edge-L_APIGateway_SecurityConfig_7_label" value="Authenticates" style="edgeLabel;html=1;align=center;verticalAlign=middle;resizable=0;points=[];" parent="edge-L_APIGateway_SecurityConfig_7" vertex="1" connectable="0">
                    <mxGeometry x="-0.2" y="10" relative="1" as="geometry">
                        <mxPoint as="offset"/>
                    </mxGeometry>
                </mxCell>
                <mxCell id="edge-L_SensorController_SensorService_8" style="edgeStyle=orthogonalEdgeStyle;rounded=1;orthogonalLoop=1;jettySize=auto;html=1;strokeColor=#808080;strokeWidth=2;jumpStyle=arc;jumpSize=10;spacing=15;labelBackgroundColor=white;labelBorderColor=none" parent="1" source="SensorController" target="SensorService" edge="1">
                    <mxGeometry relative="1" as="geometry"/>
                </mxCell>
                <mxCell id="edge-L_CompanyController_CompanyService_9" style="edgeStyle=orthogonalEdgeStyle;rounded=1;orthogonalLoop=1;jettySize=auto;html=1;strokeColor=#808080;strokeWidth=2;jumpStyle=arc;jumpSize=10;spacing=15;labelBackgroundColor=white;labelBorderColor=none" parent="1" source="CompanyController" target="CompanyService" edge="1">
                    <mxGeometry relative="1" as="geometry"/>
                </mxCell>
                <mxCell id="edge-L_LocationController_LocationService_10" style="edgeStyle=orthogonalEdgeStyle;rounded=1;orthogonalLoop=1;jettySize=auto;html=1;strokeColor=#808080;strokeWidth=2;jumpStyle=arc;jumpSize=10;spacing=15;labelBackgroundColor=white;labelBorderColor=none" parent="1" source="LocationController" target="LocationService" edge="1">
                    <mxGeometry relative="1" as="geometry"/>
                </mxCell>
                <mxCell id="edge-L_UserController_UserService_11" style="edgeStyle=orthogonalEdgeStyle;rounded=1;orthogonalLoop=1;jettySize=auto;html=1;strokeColor=#808080;strokeWidth=2;jumpStyle=arc;jumpSize=10;spacing=15;labelBackgroundColor=white;labelBorderColor=none" parent="1" source="UserController" target="UserService" edge="1">
                    <mxGeometry relative="1" as="geometry"/>
                </mxCell>
                <mxCell id="edge-L_SensorDataController_SensorDataService_12" style="edgeStyle=orthogonalEdgeStyle;rounded=1;orthogonalLoop=1;jettySize=auto;html=1;strokeColor=#808080;strokeWidth=2;jumpStyle=arc;jumpSize=10;spacing=15;labelBackgroundColor=white;labelBorderColor=none" parent="1" source="SensorDataController" target="SensorDataService" edge="1">
                    <mxGeometry relative="1" as="geometry">
                        <Array as="points">
                            <mxPoint x="580" y="710"/>
                            <mxPoint x="580" y="1181"/>
                        </Array>
                    </mxGeometry>
                </mxCell>
                <mxCell id="edge-L_RoleController_RoleService_13" style="edgeStyle=orthogonalEdgeStyle;rounded=1;orthogonalLoop=1;jettySize=auto;html=1;strokeColor=#808080;strokeWidth=2;jumpStyle=arc;jumpSize=10;spacing=15;labelBackgroundColor=white;labelBorderColor=none" parent="1" source="RoleController" target="RoleService" edge="1">
                    <mxGeometry relative="1" as="geometry"/>
                </mxCell>
                <mxCell id="edge-L_SensorService_SensorRepo_14" style="edgeStyle=orthogonalEdgeStyle;rounded=1;orthogonalLoop=1;jettySize=auto;html=1;strokeColor=#808080;strokeWidth=2;jumpStyle=arc;jumpSize=10;spacing=15;labelBackgroundColor=white;labelBorderColor=none" parent="1" source="SensorService" target="SensorRepo" edge="1">
                    <mxGeometry relative="1" as="geometry"/>
                </mxCell>
                <mxCell id="edge-L_CompanyService_CompanyRepo_15" style="edgeStyle=orthogonalEdgeStyle;rounded=1;orthogonalLoop=1;jettySize=auto;html=1;strokeColor=#808080;strokeWidth=2;jumpStyle=arc;jumpSize=10;spacing=15;labelBackgroundColor=white;labelBorderColor=none" parent="1" source="CompanyService" target="CompanyRepo" edge="1">
                    <mxGeometry relative="1" as="geometry"/>
                </mxCell>
                <mxCell id="edge-L_LocationService_LocationRepo_16" style="edgeStyle=orthogonalEdgeStyle;rounded=1;orthogonalLoop=1;jettySize=auto;html=1;strokeColor=#808080;strokeWidth=2;jumpStyle=arc;jumpSize=10;spacing=15;labelBackgroundColor=white;labelBorderColor=none" parent="1" source="LocationService" target="LocationRepo" edge="1">
                    <mxGeometry relative="1" as="geometry"/>
                </mxCell>
                <mxCell id="edge-L_UserService_UserRepo_17" style="edgeStyle=orthogonalEdgeStyle;rounded=1;orthogonalLoop=1;jettySize=auto;html=1;strokeColor=#808080;strokeWidth=2;jumpStyle=arc;jumpSize=10;spacing=15;labelBackgroundColor=white;labelBorderColor=none" parent="1" source="UserService" target="UserRepo" edge="1">
                    <mxGeometry relative="1" as="geometry"/>
                </mxCell>
                <mxCell id="edge-L_SensorDataService_SensorDataRepo_18" style="edgeStyle=orthogonalEdgeStyle;rounded=1;orthogonalLoop=1;jettySize=auto;html=1;strokeColor=#808080;strokeWidth=2;jumpStyle=arc;jumpSize=10;spacing=15;labelBackgroundColor=white;labelBorderColor=none" parent="1" source="SensorDataService" target="SensorDataRepo" edge="1">
                    <mxGeometry relative="1" as="geometry"/>
                </mxCell>
                <mxCell id="edge-L_RoleService_RoleRepo_19" style="edgeStyle=orthogonalEdgeStyle;rounded=1;orthogonalLoop=1;jettySize=auto;html=1;strokeColor=#808080;strokeWidth=2;jumpStyle=arc;jumpSize=10;spacing=15;labelBackgroundColor=white;labelBorderColor=none" parent="1" source="RoleService" target="RoleRepo" edge="1">
                    <mxGeometry relative="1" as="geometry"/>
                </mxCell>
                <mxCell id="edge-L_SensorRepo_Database_20" style="edgeStyle=orthogonalEdgeStyle;rounded=1;orthogonalLoop=1;jettySize=auto;html=1;strokeColor=#808080;strokeWidth=2;jumpStyle=arc;jumpSize=10;spacing=15;labelBackgroundColor=white;labelBorderColor=none" parent="1" source="SensorRepo" target="Database" edge="1">
                    <mxGeometry relative="1" as="geometry"/>
                </mxCell>
                <mxCell id="edge-L_CompanyRepo_Database_21" style="edgeStyle=orthogonalEdgeStyle;rounded=1;orthogonalLoop=1;jettySize=auto;html=1;strokeColor=#808080;strokeWidth=2;jumpStyle=arc;jumpSize=10;spacing=15;labelBackgroundColor=white;labelBorderColor=none" parent="1" source="CompanyRepo" target="Database" edge="1">
                    <mxGeometry relative="1" as="geometry"/>
                </mxCell>
                <mxCell id="edge-L_LocationRepo_Database_22" style="edgeStyle=orthogonalEdgeStyle;rounded=1;orthogonalLoop=1;jettySize=auto;html=1;strokeColor=#808080;strokeWidth=2;jumpStyle=arc;jumpSize=10;spacing=15;labelBackgroundColor=white;labelBorderColor=none" parent="1" source="LocationRepo" target="Database" edge="1">
                    <mxGeometry relative="1" as="geometry"/>
                </mxCell>
                <mxCell id="edge-L_UserRepo_Database_23" style="edgeStyle=orthogonalEdgeStyle;rounded=1;orthogonalLoop=1;jettySize=auto;html=1;strokeColor=#808080;strokeWidth=2;jumpStyle=arc;jumpSize=10;spacing=15;labelBackgroundColor=white;labelBorderColor=none" parent="1" source="UserRepo" target="Database" edge="1">
                    <mxGeometry relative="1" as="geometry"/>
                </mxCell>
                <mxCell id="edge-L_RoleRepo_Database_24" style="edgeStyle=orthogonalEdgeStyle;rounded=1;orthogonalLoop=1;jettySize=auto;html=1;strokeColor=#808080;strokeWidth=2;jumpStyle=arc;jumpSize=10;spacing=15;labelBackgroundColor=white;labelBorderColor=none" parent="1" source="RoleRepo" target="Database" edge="1">
                    <mxGeometry relative="1" as="geometry"/>
                </mxCell>
                <mxCell id="edge-L_SensorDataRepo_Database_25" style="edgeStyle=orthogonalEdgeStyle;rounded=1;orthogonalLoop=1;jettySize=auto;html=1;strokeColor=#808080;strokeWidth=2;jumpStyle=arc;jumpSize=10;spacing=15;labelBackgroundColor=white;labelBorderColor=none" parent="1" source="SensorDataRepo" target="Database" edge="1">
                    <mxGeometry relative="1" as="geometry"/>
                </mxCell>
                <mxCell id="edge-L_SecurityConfig_ApiKeyGenerator_26" style="edgeStyle=orthogonalEdgeStyle;rounded=1;orthogonalLoop=1;jettySize=auto;html=1;strokeColor=#808080;strokeWidth=2;jumpStyle=arc;jumpSize=10;spacing=15;labelBackgroundColor=white;labelBorderColor=none" parent="1" source="SecurityConfig" target="ApiKeyGenerator" edge="1">
                    <mxGeometry relative="1" as="geometry"/>
                </mxCell>
                <mxCell id="edge-L_SecurityConfig_ApiKeyGenerator_26_label" value="Validates" style="edgeLabel;html=1;align=center;verticalAlign=middle;resizable=0;points=[];" parent="edge-L_SecurityConfig_ApiKeyGenerator_26" vertex="1" connectable="0">
                    <mxGeometry x="-0.2" y="10" relative="1" as="geometry">
                        <mxPoint as="offset"/>
                    </mxGeometry>
                </mxCell>
                <mxCell id="edge-L_MQTTSubscriber_SensorDataService_27" style="edgeStyle=orthogonalEdgeStyle;rounded=1;orthogonalLoop=1;jettySize=auto;html=1;strokeColor=#808080;strokeWidth=2;jumpStyle=arc;jumpSize=10;spacing=15;labelBackgroundColor=white;labelBorderColor=none" parent="1" source="MQTTSubscriber" target="SensorDataService" edge="1">
                    <mxGeometry relative="1" as="geometry"/>
                </mxCell>
                <mxCell id="edge-L_MQTTSubscriber_SensorDataService_27_label" value="Processes Data" style="edgeLabel;html=1;align=center;verticalAlign=middle;resizable=0;points=[];" parent="edge-L_MQTTSubscriber_SensorDataService_27" vertex="1" connectable="0">
                    <mxGeometry x="-0.2" y="10" relative="1" as="geometry">
                        <mxPoint as="offset"/>
                    </mxGeometry>
                </mxCell>
                <mxCell id="edge-L_SensorController_DTOs_28" style="edgeStyle=orthogonalEdgeStyle;rounded=1;orthogonalLoop=1;jettySize=auto;html=1;strokeColor=#808080;strokeWidth=2;jumpStyle=arc;jumpSize=10;spacing=15;labelBackgroundColor=white;labelBorderColor=none" parent="1" source="SensorController" target="DTOs" edge="1">
                    <mxGeometry relative="1" as="geometry"/>
                </mxCell>
                <mxCell id="edge-L_SensorController_DTOs_28_label" value="Uses" style="edgeLabel;html=1;align=center;verticalAlign=middle;resizable=0;points=[];" parent="edge-L_SensorController_DTOs_28" vertex="1" connectable="0">
                    <mxGeometry x="-0.2" y="10" relative="1" as="geometry">
                        <mxPoint as="offset"/>
                    </mxGeometry>
                </mxCell>
                <mxCell id="edge-L_CompanyController_DTOs_29" style="edgeStyle=orthogonalEdgeStyle;rounded=1;orthogonalLoop=1;jettySize=auto;html=1;strokeColor=#808080;strokeWidth=2;jumpStyle=arc;jumpSize=10;spacing=15;labelBackgroundColor=white;labelBorderColor=none" parent="1" source="CompanyController" target="DTOs" edge="1">
                    <mxGeometry relative="1" as="geometry"/>
                </mxCell>
                <mxCell id="edge-L_CompanyController_DTOs_29_label" value="Uses" style="edgeLabel;html=1;align=center;verticalAlign=middle;resizable=0;points=[];" parent="edge-L_CompanyController_DTOs_29" vertex="1" connectable="0">
                    <mxGeometry x="-0.2" y="10" relative="1" as="geometry">
                        <mxPoint as="offset"/>
                    </mxGeometry>
                </mxCell>
                <mxCell id="edge-L_LocationController_DTOs_30" style="edgeStyle=orthogonalEdgeStyle;rounded=1;orthogonalLoop=1;jettySize=auto;html=1;strokeColor=#808080;strokeWidth=2;jumpStyle=arc;jumpSize=10;spacing=15;labelBackgroundColor=white;labelBorderColor=none" parent="1" source="LocationController" target="DTOs" edge="1">
                    <mxGeometry relative="1" as="geometry"/>
                </mxCell>
                <mxCell id="edge-L_LocationController_DTOs_30_label" value="Uses" style="edgeLabel;html=1;align=center;verticalAlign=middle;resizable=0;points=[];" parent="edge-L_LocationController_DTOs_30" vertex="1" connectable="0">
                    <mxGeometry x="-0.2" y="10" relative="1" as="geometry">
                        <mxPoint as="offset"/>
                    </mxGeometry>
                </mxCell>
                <mxCell id="edge-L_UserController_DTOs_31" style="edgeStyle=orthogonalEdgeStyle;rounded=1;orthogonalLoop=1;jettySize=auto;html=1;strokeColor=#808080;strokeWidth=2;jumpStyle=arc;jumpSize=10;spacing=15;labelBackgroundColor=white;labelBorderColor=none" parent="1" source="UserController" target="DTOs" edge="1">
                    <mxGeometry relative="1" as="geometry"/>
                </mxCell>
                <mxCell id="edge-L_UserController_DTOs_31_label" value="Uses" style="edgeLabel;html=1;align=center;verticalAlign=middle;resizable=0;points=[];" parent="edge-L_UserController_DTOs_31" vertex="1" connectable="0">
                    <mxGeometry x="-0.2" y="10" relative="1" as="geometry">
                        <mxPoint as="offset"/>
                    </mxGeometry>
                </mxCell>
                <mxCell id="edge-L_SensorDataController_DTOs_32" style="edgeStyle=orthogonalEdgeStyle;rounded=1;orthogonalLoop=1;jettySize=auto;html=1;strokeColor=#808080;strokeWidth=2;jumpStyle=arc;jumpSize=10;spacing=15;labelBackgroundColor=white;labelBorderColor=none" parent="1" source="SensorDataController" target="DTOs" edge="1">
                    <mxGeometry relative="1" as="geometry"/>
                </mxCell>
                <mxCell id="edge-L_SensorDataController_DTOs_32_label" value="Uses" style="edgeLabel;html=1;align=center;verticalAlign=middle;resizable=0;points=[];" parent="edge-L_SensorDataController_DTOs_32" vertex="1" connectable="0">
                    <mxGeometry x="-0.2" y="10" relative="1" as="geometry">
                        <mxPoint as="offset"/>
                    </mxGeometry>
                </mxCell>
                <mxCell id="SensorDataController" value="Sensor Data Controller&lt;br&gt;Spring REST" style="rounded=1;whiteSpace=wrap;html=1;fillColor=#f5f5f5" parent="1" vertex="1">
                    <mxGeometry x="1220" y="680" width="120" height="60" as="geometry"/>
                </mxCell>
            </root>
        </mxGraphModel>
    </diagram>
</mxfile>